<?xml version="1.0" encoding="UTF-8" standalone="no"?>
<!DOCTYPE svg PUBLIC "-//W3C//DTD SVG 1.1//EN"
 "http://www.w3.org/Graphics/SVG/1.1/DTD/svg11.dtd">
<!-- Generated by graphviz version 2.43.0 (0)
 -->
<!-- Title: alt_database_schema_diagram Pages: 1 -->
<svg width="1683pt" height="1828pt"
 viewBox="0.00 0.00 1683.00 1828.00" xmlns="http://www.w3.org/2000/svg" xmlns:xlink="http://www.w3.org/1999/xlink">
<g id="graph0" class="graph" transform="scale(1 1) rotate(0) translate(4 1824)">
<title>alt_database_schema_diagram</title>
<polygon fill="white" stroke="transparent" points="-4,4 -4,-1824 1679,-1824 1679,4 -4,4"/>
<!-- entity_attr -->
<g id="node1" class="node">
<title>entity_attr</title>
<ellipse fill="none" stroke="black" cx="710.98" cy="-1560.85" rx="59.59" ry="18"/>
<text text-anchor="middle" x="710.98" y="-1557.15" font-family="Times,serif" font-size="14.00">entity_attr</text>
</g>
<!-- entity_dic -->
<g id="node3" class="node">
<title>entity_dic</title>
<ellipse fill="none" stroke="black" cx="647.54" cy="-1441.13" rx="55.79" ry="18"/>
<text text-anchor="middle" x="647.54" y="-1437.43" font-family="Times,serif" font-size="14.00">entity_dic</text>
</g>
<!-- entity_attr&#45;&gt;entity_dic -->
<g id="edge1" class="edge">
<title>entity_attr&#45;&gt;entity_dic</title>
<path fill="none" stroke="black" d="M701.48,-1542.93C690.97,-1523.09 673.92,-1490.91 661.8,-1468.04"/>
<polygon fill="black" stroke="black" points="664.88,-1466.37 657.11,-1459.17 658.7,-1469.65 664.88,-1466.37"/>
</g>
<!-- type_dic -->
<g id="node49" class="node">
<title>type_dic</title>
<ellipse fill="none" stroke="black" cx="804.68" cy="-1324.37" rx="49.29" ry="18"/>
<text text-anchor="middle" x="804.68" y="-1320.67" font-family="Times,serif" font-size="14.00">type_dic</text>
</g>
<!-- entity_attr&#45;&gt;type_dic -->
<g id="edge2" class="edge">
<title>entity_attr&#45;&gt;type_dic</title>
<path fill="none" stroke="black" d="M718.18,-1542.69C734.53,-1501.4 774.58,-1400.33 793.9,-1351.57"/>
<polygon fill="black" stroke="black" points="797.16,-1352.85 797.59,-1342.27 790.65,-1350.28 797.16,-1352.85"/>
</g>
<!-- entity_attr_txt -->
<g id="node2" class="node">
<title>entity_attr_txt</title>
<ellipse fill="none" stroke="black" cx="523.1" cy="-1331.79" rx="77.19" ry="18"/>
<text text-anchor="middle" x="523.1" y="-1328.09" font-family="Times,serif" font-size="14.00">entity_attr_txt</text>
</g>
<!-- entity_attr_txt&#45;&gt;entity_attr -->
<g id="edge3" class="edge">
<title>entity_attr_txt&#45;&gt;entity_attr</title>
<path fill="none" stroke="black" d="M537.85,-1349.76C571.06,-1390.26 651.82,-1488.72 690.14,-1535.44"/>
<polygon fill="black" stroke="black" points="687.52,-1537.76 696.56,-1543.28 692.93,-1533.32 687.52,-1537.76"/>
</g>
<!-- lang_lst -->
<g id="node11" class="node">
<title>lang_lst</title>
<ellipse fill="none" stroke="black" cx="485.44" cy="-1000.62" rx="46.59" ry="18"/>
<text text-anchor="middle" x="485.44" y="-996.92" font-family="Times,serif" font-size="14.00">lang_lst</text>
</g>
<!-- entity_attr_txt&#45;&gt;lang_lst -->
<g id="edge4" class="edge">
<title>entity_attr_txt&#45;&gt;lang_lst</title>
<path fill="none" stroke="black" d="M521.02,-1313.51C514.79,-1258.66 496.2,-1095.2 488.66,-1028.96"/>
<polygon fill="black" stroke="black" points="492.12,-1028.38 487.51,-1018.84 485.16,-1029.17 492.12,-1028.38"/>
</g>
<!-- entity_dic_txt -->
<g id="node4" class="node">
<title>entity_dic_txt</title>
<ellipse fill="none" stroke="black" cx="439.61" cy="-1281.61" rx="73.39" ry="18"/>
<text text-anchor="middle" x="439.61" y="-1277.91" font-family="Times,serif" font-size="14.00">entity_dic_txt</text>
</g>
<!-- entity_dic_txt&#45;&gt;entity_dic -->
<g id="edge5" class="edge">
<title>entity_dic_txt&#45;&gt;entity_dic</title>
<path fill="none" stroke="black" d="M462.26,-1298.98C499.97,-1327.92 575.65,-1385.97 617.68,-1418.22"/>
<polygon fill="black" stroke="black" points="615.8,-1421.18 625.86,-1424.49 620.06,-1415.63 615.8,-1421.18"/>
</g>
<!-- entity_dic_txt&#45;&gt;lang_lst -->
<g id="edge6" class="edge">
<title>entity_dic_txt&#45;&gt;lang_lst</title>
<path fill="none" stroke="black" d="M442.54,-1263.6C450.3,-1216.04 471.39,-1086.73 480.8,-1029.06"/>
<polygon fill="black" stroke="black" points="484.31,-1029.27 482.47,-1018.84 477.4,-1028.14 484.31,-1029.27"/>
</g>
<!-- entity_gen -->
<g id="node5" class="node">
<title>entity_gen</title>
<ellipse fill="none" stroke="black" cx="865.18" cy="-1592.21" rx="59.59" ry="18"/>
<text text-anchor="middle" x="865.18" y="-1588.51" font-family="Times,serif" font-size="14.00">entity_gen</text>
</g>
<!-- entity_gen&#45;&gt;entity_dic -->
<g id="edge7" class="edge">
<title>entity_gen&#45;&gt;entity_dic</title>
<path fill="none" stroke="black" d="M841.06,-1575.46C801.63,-1548.09 723.38,-1493.77 679.43,-1463.26"/>
<polygon fill="black" stroke="black" points="681.32,-1460.32 671.11,-1457.49 677.33,-1466.07 681.32,-1460.32"/>
</g>
<!-- entity_gen_attr -->
<g id="node6" class="node">
<title>entity_gen_attr</title>
<ellipse fill="none" stroke="black" cx="803.75" cy="-1801.71" rx="81.49" ry="18"/>
<text text-anchor="middle" x="803.75" y="-1798.01" font-family="Times,serif" font-size="14.00">entity_gen_attr</text>
</g>
<!-- entity_gen_attr&#45;&gt;entity_attr -->
<g id="edge9" class="edge">
<title>entity_gen_attr&#45;&gt;entity_attr</title>
<path fill="none" stroke="black" d="M796.77,-1783.61C780.65,-1741.74 740.71,-1638.04 721.56,-1588.31"/>
<polygon fill="black" stroke="black" points="724.77,-1586.91 717.91,-1578.84 718.24,-1589.43 724.77,-1586.91"/>
</g>
<!-- entity_gen_attr&#45;&gt;entity_gen -->
<g id="edge8" class="edge">
<title>entity_gen_attr&#45;&gt;entity_gen</title>
<path fill="none" stroke="black" d="M809.09,-1783.48C819.88,-1746.71 844.29,-1663.44 857.06,-1619.9"/>
<polygon fill="black" stroke="black" points="860.44,-1620.82 859.89,-1610.24 853.72,-1618.85 860.44,-1620.82"/>
</g>
<!-- group_lst -->
<g id="node7" class="node">
<title>group_lst</title>
<ellipse fill="none" stroke="black" cx="607.37" cy="-558.2" rx="53.89" ry="18"/>
<text text-anchor="middle" x="607.37" y="-554.5" font-family="Times,serif" font-size="14.00">group_lst</text>
</g>
<!-- model_dic -->
<g id="node13" class="node">
<title>model_dic</title>
<ellipse fill="none" stroke="black" cx="623.17" cy="-848.72" rx="57.39" ry="18"/>
<text text-anchor="middle" x="623.17" y="-845.02" font-family="Times,serif" font-size="14.00">model_dic</text>
</g>
<!-- group_lst&#45;&gt;model_dic -->
<g id="edge10" class="edge">
<title>group_lst&#45;&gt;model_dic</title>
<path fill="none" stroke="black" d="M608.36,-576.38C611.03,-625.49 618.41,-761.17 621.63,-820.42"/>
<polygon fill="black" stroke="black" points="618.14,-820.76 622.18,-830.55 625.13,-820.38 618.14,-820.76"/>
</g>
<!-- group_pc -->
<g id="node8" class="node">
<title>group_pc</title>
<ellipse fill="none" stroke="black" cx="609.01" cy="-307.17" rx="53.09" ry="18"/>
<text text-anchor="middle" x="609.01" y="-303.47" font-family="Times,serif" font-size="14.00">group_pc</text>
</g>
<!-- group_pc&#45;&gt;group_lst -->
<g id="edge11" class="edge">
<title>group_pc&#45;&gt;group_lst</title>
<path fill="none" stroke="black" d="M608.89,-325.22C608.61,-368.36 607.9,-477.69 607.56,-529.77"/>
<polygon fill="black" stroke="black" points="604.06,-529.95 607.49,-539.97 611.06,-530 604.06,-529.95"/>
</g>
<!-- group_txt -->
<g id="node9" class="node">
<title>group_txt</title>
<ellipse fill="none" stroke="black" cx="483.32" cy="-730.51" rx="55.79" ry="18"/>
<text text-anchor="middle" x="483.32" y="-726.81" font-family="Times,serif" font-size="14.00">group_txt</text>
</g>
<!-- group_txt&#45;&gt;group_lst -->
<g id="edge13" class="edge">
<title>group_txt&#45;&gt;group_lst</title>
<path fill="none" stroke="black" d="M496.13,-712.72C518.1,-682.2 563.07,-619.74 588.59,-584.29"/>
<polygon fill="black" stroke="black" points="591.63,-586.06 594.63,-575.9 585.95,-581.97 591.63,-586.06"/>
</g>
<!-- group_txt&#45;&gt;lang_lst -->
<g id="edge12" class="edge">
<title>group_txt&#45;&gt;lang_lst</title>
<path fill="none" stroke="black" d="M483.46,-748.65C483.83,-794.78 484.78,-916.83 485.22,-972.38"/>
<polygon fill="black" stroke="black" points="481.72,-972.58 485.3,-982.56 488.72,-972.53 481.72,-972.58"/>
</g>
<!-- id_lst -->
<g id="node10" class="node">
<title>id_lst</title>
<ellipse fill="none" stroke="black" cx="1008.24" cy="-557.64" rx="36" ry="18"/>
<text text-anchor="middle" x="1008.24" y="-553.94" font-family="Times,serif" font-size="14.00">id_lst</text>
</g>
<!-- lang_word -->
<g id="node12" class="node">
<title>lang_word</title>
<ellipse fill="none" stroke="black" cx="199.41" cy="-912.82" rx="58.49" ry="18"/>
<text text-anchor="middle" x="199.41" y="-909.12" font-family="Times,serif" font-size="14.00">lang_word</text>
</g>
<!-- lang_word&#45;&gt;lang_lst -->
<g id="edge14" class="edge">
<title>lang_word&#45;&gt;lang_lst</title>
<path fill="none" stroke="black" d="M241.01,-925.58C293.66,-941.75 384.11,-969.51 438.98,-986.36"/>
<polygon fill="black" stroke="black" points="438.21,-989.78 448.79,-989.37 440.26,-983.09 438.21,-989.78"/>
</g>
<!-- model_dic&#45;&gt;lang_lst -->
<g id="edge15" class="edge">
<title>model_dic&#45;&gt;lang_lst</title>
<path fill="none" stroke="black" d="M607.37,-866.15C582.98,-893.04 536.06,-944.79 508.08,-975.66"/>
<polygon fill="black" stroke="black" points="505.18,-973.64 501.05,-983.4 510.36,-978.34 505.18,-973.64"/>
</g>
<!-- model_dic_txt -->
<g id="node14" class="node">
<title>model_dic_txt</title>
<ellipse fill="none" stroke="black" cx="324.8" cy="-851.08" rx="74.99" ry="18"/>
<text text-anchor="middle" x="324.8" y="-847.38" font-family="Times,serif" font-size="14.00">model_dic_txt</text>
</g>
<!-- model_dic_txt&#45;&gt;lang_lst -->
<g id="edge17" class="edge">
<title>model_dic_txt&#45;&gt;lang_lst</title>
<path fill="none" stroke="black" d="M343.54,-868.53C372.35,-895.34 427.58,-946.75 459.98,-976.92"/>
<polygon fill="black" stroke="black" points="457.61,-979.49 467.31,-983.74 462.37,-974.37 457.61,-979.49"/>
</g>
<!-- model_dic_txt&#45;&gt;model_dic -->
<g id="edge16" class="edge">
<title>model_dic_txt&#45;&gt;model_dic</title>
<path fill="none" stroke="black" d="M399.7,-850.49C447.53,-850.11 509.03,-849.62 555.4,-849.26"/>
<polygon fill="black" stroke="black" points="555.67,-852.75 565.65,-849.18 555.62,-845.76 555.67,-852.75"/>
</g>
<!-- model_entity_dic -->
<g id="node15" class="node">
<title>model_entity_dic</title>
<ellipse fill="none" stroke="black" cx="566.1" cy="-1118.98" rx="89.08" ry="18"/>
<text text-anchor="middle" x="566.1" y="-1115.28" font-family="Times,serif" font-size="14.00">model_entity_dic</text>
</g>
<!-- model_entity_dic&#45;&gt;entity_dic -->
<g id="edge18" class="edge">
<title>model_entity_dic&#45;&gt;entity_dic</title>
<path fill="none" stroke="black" d="M570.71,-1137.23C584.29,-1190.94 624.19,-1348.76 640.49,-1413.22"/>
<polygon fill="black" stroke="black" points="637.14,-1414.25 642.98,-1423.09 643.92,-1412.53 637.14,-1414.25"/>
</g>
<!-- model_entity_dic&#45;&gt;model_dic -->
<g id="edge19" class="edge">
<title>model_entity_dic&#45;&gt;model_dic</title>
<path fill="none" stroke="black" d="M569.94,-1100.83C579.7,-1054.58 605.57,-932.05 617.28,-876.63"/>
<polygon fill="black" stroke="black" points="620.71,-877.3 619.35,-866.79 613.86,-875.86 620.71,-877.3"/>
</g>
<!-- model_parameter_dic -->
<g id="node16" class="node">
<title>model_parameter_dic</title>
<ellipse fill="none" stroke="black" cx="1020.82" cy="-724.19" rx="110.48" ry="18"/>
<text text-anchor="middle" x="1020.82" y="-720.49" font-family="Times,serif" font-size="14.00">model_parameter_dic</text>
</g>
<!-- model_parameter_dic&#45;&gt;model_dic -->
<g id="edge21" class="edge">
<title>model_parameter_dic&#45;&gt;model_dic</title>
<path fill="none" stroke="black" d="M969.65,-740.21C893.16,-764.17 749.89,-809.04 673.75,-832.88"/>
<polygon fill="black" stroke="black" points="672.41,-829.63 663.91,-835.96 674.5,-836.31 672.41,-829.63"/>
</g>
<!-- parameter_dic -->
<g id="node21" class="node">
<title>parameter_dic</title>
<ellipse fill="none" stroke="black" cx="1005.45" cy="-1027.42" rx="77.19" ry="18"/>
<text text-anchor="middle" x="1005.45" y="-1023.72" font-family="Times,serif" font-size="14.00">parameter_dic</text>
</g>
<!-- model_parameter_dic&#45;&gt;parameter_dic -->
<g id="edge20" class="edge">
<title>model_parameter_dic&#45;&gt;parameter_dic</title>
<path fill="none" stroke="black" d="M1019.91,-742.25C1017.33,-793.01 1010.02,-937.24 1006.9,-998.9"/>
<polygon fill="black" stroke="black" points="1003.39,-998.91 1006.38,-1009.07 1010.38,-999.26 1003.39,-998.91"/>
</g>
<!-- model_parameter_import -->
<g id="node17" class="node">
<title>model_parameter_import</title>
<ellipse fill="none" stroke="black" cx="1265.38" cy="-468.31" rx="128.08" ry="18"/>
<text text-anchor="middle" x="1265.38" y="-464.61" font-family="Times,serif" font-size="14.00">model_parameter_import</text>
</g>
<!-- model_parameter_import&#45;&gt;model_parameter_dic -->
<g id="edge22" class="edge">
<title>model_parameter_import&#45;&gt;model_parameter_dic</title>
<path fill="none" stroke="black" d="M1248.18,-486.3C1205.47,-530.99 1094.46,-647.14 1045.1,-698.79"/>
<polygon fill="black" stroke="black" points="1042.38,-696.57 1038,-706.21 1047.44,-701.4 1042.38,-696.57"/>
</g>
<!-- model_table_dic -->
<g id="node18" class="node">
<title>model_table_dic</title>
<ellipse fill="none" stroke="black" cx="345.22" cy="-1035.61" rx="85.29" ry="18"/>
<text text-anchor="middle" x="345.22" y="-1031.91" font-family="Times,serif" font-size="14.00">model_table_dic</text>
</g>
<!-- model_table_dic&#45;&gt;model_dic -->
<g id="edge24" class="edge">
<title>model_table_dic&#45;&gt;model_dic</title>
<path fill="none" stroke="black" d="M370.87,-1018.37C421.52,-984.31 534.28,-908.49 590.29,-870.83"/>
<polygon fill="black" stroke="black" points="592.43,-873.61 598.78,-865.12 588.53,-867.8 592.43,-873.61"/>
</g>
<!-- table_dic -->
<g id="node38" class="node">
<title>table_dic</title>
<ellipse fill="none" stroke="black" cx="306.12" cy="-1297.93" rx="51.99" ry="18"/>
<text text-anchor="middle" x="306.12" y="-1294.23" font-family="Times,serif" font-size="14.00">table_dic</text>
</g>
<!-- model_table_dic&#45;&gt;table_dic -->
<g id="edge23" class="edge">
<title>model_table_dic&#45;&gt;table_dic</title>
<path fill="none" stroke="black" d="M342.53,-1053.64C335.84,-1098.57 318.37,-1215.76 310.3,-1269.84"/>
<polygon fill="black" stroke="black" points="306.84,-1269.37 308.82,-1279.78 313.76,-1270.4 306.84,-1269.37"/>
</g>
<!-- model_type_dic -->
<g id="node19" class="node">
<title>model_type_dic</title>
<ellipse fill="none" stroke="black" cx="752.38" cy="-1081.85" rx="81.79" ry="18"/>
<text text-anchor="middle" x="752.38" y="-1078.15" font-family="Times,serif" font-size="14.00">model_type_dic</text>
</g>
<!-- model_type_dic&#45;&gt;model_dic -->
<g id="edge26" class="edge">
<title>model_type_dic&#45;&gt;model_dic</title>
<path fill="none" stroke="black" d="M742.45,-1063.95C719.91,-1023.26 664.72,-923.69 638.06,-875.59"/>
<polygon fill="black" stroke="black" points="641.04,-873.74 633.13,-866.69 634.91,-877.13 641.04,-873.74"/>
</g>
<!-- model_type_dic&#45;&gt;type_dic -->
<g id="edge25" class="edge">
<title>model_type_dic&#45;&gt;type_dic</title>
<path fill="none" stroke="black" d="M756.31,-1100.08C765.38,-1142.14 787.83,-1246.21 798.65,-1296.41"/>
<polygon fill="black" stroke="black" points="795.25,-1297.22 800.78,-1306.26 802.09,-1295.74 795.25,-1297.22"/>
</g>
<!-- model_word -->
<g id="node20" class="node">
<title>model_word</title>
<ellipse fill="none" stroke="black" cx="427.2" cy="-807.04" rx="66.89" ry="18"/>
<text text-anchor="middle" x="427.2" y="-803.34" font-family="Times,serif" font-size="14.00">model_word</text>
</g>
<!-- model_word&#45;&gt;lang_lst -->
<g id="edge28" class="edge">
<title>model_word&#45;&gt;lang_lst</title>
<path fill="none" stroke="black" d="M432.68,-825.25C442.91,-859.28 465,-932.69 477.1,-972.9"/>
<polygon fill="black" stroke="black" points="473.78,-974.03 480.02,-982.6 480.49,-972.01 473.78,-974.03"/>
</g>
<!-- model_word&#45;&gt;model_dic -->
<g id="edge27" class="edge">
<title>model_word&#45;&gt;model_dic</title>
<path fill="none" stroke="black" d="M479.71,-818.21C506.16,-823.83 538.27,-830.66 565.41,-836.44"/>
<polygon fill="black" stroke="black" points="565.03,-839.93 575.54,-838.59 566.49,-833.09 565.03,-839.93"/>
</g>
<!-- parameter_dic&#45;&gt;type_dic -->
<g id="edge29" class="edge">
<title>parameter_dic&#45;&gt;type_dic</title>
<path fill="none" stroke="black" d="M993.19,-1045.55C958.94,-1096.22 862.11,-1239.43 822.2,-1298.45"/>
<polygon fill="black" stroke="black" points="819.23,-1296.6 816.52,-1306.85 825.02,-1300.52 819.23,-1296.6"/>
</g>
<!-- parameter_dic_txt -->
<g id="node22" class="node">
<title>parameter_dic_txt</title>
<ellipse fill="none" stroke="black" cx="743.76" cy="-906.46" rx="94.78" ry="18"/>
<text text-anchor="middle" x="743.76" y="-902.76" font-family="Times,serif" font-size="14.00">parameter_dic_txt</text>
</g>
<!-- parameter_dic_txt&#45;&gt;lang_lst -->
<g id="edge31" class="edge">
<title>parameter_dic_txt&#45;&gt;lang_lst</title>
<path fill="none" stroke="black" d="M699.94,-922.43C652.27,-939.81 576.52,-967.42 528.96,-984.75"/>
<polygon fill="black" stroke="black" points="527.75,-981.47 519.56,-988.18 530.15,-988.05 527.75,-981.47"/>
</g>
<!-- parameter_dic_txt&#45;&gt;parameter_dic -->
<g id="edge30" class="edge">
<title>parameter_dic_txt&#45;&gt;parameter_dic</title>
<path fill="none" stroke="black" d="M779.87,-923.15C827.26,-945.06 910.37,-983.48 961.4,-1007.06"/>
<polygon fill="black" stroke="black" points="960,-1010.27 970.54,-1011.29 962.93,-1003.92 960,-1010.27"/>
</g>
<!-- parameter_dims -->
<g id="node23" class="node">
<title>parameter_dims</title>
<ellipse fill="none" stroke="black" cx="1020.66" cy="-1271.69" rx="86.38" ry="18"/>
<text text-anchor="middle" x="1020.66" y="-1267.99" font-family="Times,serif" font-size="14.00">parameter_dims</text>
</g>
<!-- parameter_dims&#45;&gt;parameter_dic -->
<g id="edge32" class="edge">
<title>parameter_dims&#45;&gt;parameter_dic</title>
<path fill="none" stroke="black" d="M1019.52,-1253.33C1016.89,-1211.05 1010.38,-1106.58 1007.22,-1055.9"/>
<polygon fill="black" stroke="black" points="1010.7,-1055.43 1006.59,-1045.66 1003.72,-1055.86 1010.7,-1055.43"/>
</g>
<!-- parameter_dims&#45;&gt;type_dic -->
<g id="edge33" class="edge">
<title>parameter_dims&#45;&gt;type_dic</title>
<path fill="none" stroke="black" d="M964.48,-1285.39C930.84,-1293.6 888.4,-1303.95 855.72,-1311.92"/>
<polygon fill="black" stroke="black" points="854.8,-1308.54 845.91,-1314.31 856.46,-1315.34 854.8,-1308.54"/>
</g>
<!-- parameter_dims_txt -->
<g id="node24" class="node">
<title>parameter_dims_txt</title>
<ellipse fill="none" stroke="black" cx="778.04" cy="-1149.51" rx="103.98" ry="18"/>
<text text-anchor="middle" x="778.04" y="-1145.81" font-family="Times,serif" font-size="14.00">parameter_dims_txt</text>
</g>
<!-- parameter_dims_txt&#45;&gt;lang_lst -->
<g id="edge35" class="edge">
<title>parameter_dims_txt&#45;&gt;lang_lst</title>
<path fill="none" stroke="black" d="M744.48,-1132.43C689.45,-1104.43 580.42,-1048.95 522.94,-1019.7"/>
<polygon fill="black" stroke="black" points="524.33,-1016.48 513.83,-1015.07 521.16,-1022.72 524.33,-1016.48"/>
</g>
<!-- parameter_dims_txt&#45;&gt;parameter_dims -->
<g id="edge34" class="edge">
<title>parameter_dims_txt&#45;&gt;parameter_dims</title>
<path fill="none" stroke="black" d="M812.03,-1166.63C855.56,-1188.55 930.99,-1226.53 978.23,-1250.33"/>
<polygon fill="black" stroke="black" points="976.78,-1253.51 987.29,-1254.89 979.93,-1247.26 976.78,-1253.51"/>
</g>
<!-- profile_lst -->
<g id="node25" class="node">
<title>profile_lst</title>
<ellipse fill="none" stroke="black" cx="1352.19" cy="-903.04" rx="56.59" ry="18"/>
<text text-anchor="middle" x="1352.19" y="-899.34" font-family="Times,serif" font-size="14.00">profile_lst</text>
</g>
<!-- profile_option -->
<g id="node26" class="node">
<title>profile_option</title>
<ellipse fill="none" stroke="black" cx="1494.08" cy="-881.84" rx="74.19" ry="18"/>
<text text-anchor="middle" x="1494.08" y="-878.14" font-family="Times,serif" font-size="14.00">profile_option</text>
</g>
<!-- profile_option&#45;&gt;profile_lst -->
<g id="edge36" class="edge">
<title>profile_option&#45;&gt;profile_lst</title>
<path fill="none" stroke="black" d="M1430.6,-891.33C1424.98,-892.17 1419.29,-893.02 1413.68,-893.86"/>
<polygon fill="black" stroke="black" points="1413.07,-890.41 1403.7,-895.35 1414.11,-897.33 1413.07,-890.41"/>
</g>
<!-- run_entity -->
<g id="node27" class="node">
<title>run_entity</title>
<ellipse fill="none" stroke="black" cx="973.08" cy="-1357.51" rx="58.49" ry="18"/>
<text text-anchor="middle" x="973.08" y="-1353.81" font-family="Times,serif" font-size="14.00">run_entity</text>
</g>
<!-- run_entity&#45;&gt;entity_gen -->
<g id="edge38" class="edge">
<title>run_entity&#45;&gt;entity_gen</title>
<path fill="none" stroke="black" d="M964.79,-1375.53C946,-1416.41 900.07,-1516.32 877.76,-1564.86"/>
<polygon fill="black" stroke="black" points="874.49,-1563.57 873.5,-1574.12 880.85,-1566.49 874.49,-1563.57"/>
</g>
<!-- run_lst -->
<g id="node28" class="node">
<title>run_lst</title>
<ellipse fill="none" stroke="black" cx="885.27" cy="-1071.46" rx="42.79" ry="18"/>
<text text-anchor="middle" x="885.27" y="-1067.76" font-family="Times,serif" font-size="14.00">run_lst</text>
</g>
<!-- run_entity&#45;&gt;run_lst -->
<g id="edge37" class="edge">
<title>run_entity&#45;&gt;run_lst</title>
<path fill="none" stroke="black" d="M967.45,-1339.18C952.49,-1290.44 911.65,-1157.4 893.81,-1099.26"/>
<polygon fill="black" stroke="black" points="897.13,-1098.17 890.85,-1089.64 890.44,-1100.22 897.13,-1098.17"/>
</g>
<!-- run_lst&#45;&gt;model_dic -->
<g id="edge39" class="edge">
<title>run_lst&#45;&gt;model_dic</title>
<path fill="none" stroke="black" d="M866,-1055.08C820.12,-1016.09 704.28,-917.65 650.9,-872.28"/>
<polygon fill="black" stroke="black" points="653.07,-869.54 643.19,-865.73 648.54,-874.87 653.07,-869.54"/>
</g>
<!-- run_option -->
<g id="node29" class="node">
<title>run_option</title>
<ellipse fill="none" stroke="black" cx="1114.5" cy="-1071.63" rx="60.39" ry="18"/>
<text text-anchor="middle" x="1114.5" y="-1067.93" font-family="Times,serif" font-size="14.00">run_option</text>
</g>
<!-- run_option&#45;&gt;run_lst -->
<g id="edge40" class="edge">
<title>run_option&#45;&gt;run_lst</title>
<path fill="none" stroke="black" d="M1053.97,-1071.59C1018.15,-1071.56 973.18,-1071.53 938.68,-1071.5"/>
<polygon fill="black" stroke="black" points="938.34,-1068 928.33,-1071.49 938.33,-1075 938.34,-1068"/>
</g>
<!-- run_parameter -->
<g id="node30" class="node">
<title>run_parameter</title>
<ellipse fill="none" stroke="black" cx="1235.52" cy="-1027.63" rx="79.89" ry="18"/>
<text text-anchor="middle" x="1235.52" y="-1023.93" font-family="Times,serif" font-size="14.00">run_parameter</text>
</g>
<!-- run_parameter&#45;&gt;parameter_dic -->
<g id="edge42" class="edge">
<title>run_parameter&#45;&gt;parameter_dic</title>
<path fill="none" stroke="black" d="M1155.38,-1027.56C1135.3,-1027.54 1113.65,-1027.52 1093.22,-1027.5"/>
<polygon fill="black" stroke="black" points="1092.99,-1024 1082.98,-1027.49 1092.98,-1031 1092.99,-1024"/>
</g>
<!-- run_parameter&#45;&gt;run_lst -->
<g id="edge41" class="edge">
<title>run_parameter&#45;&gt;run_lst</title>
<path fill="none" stroke="black" d="M1165.48,-1036.39C1097.92,-1044.85 997.25,-1057.45 936.76,-1065.02"/>
<polygon fill="black" stroke="black" points="936.16,-1061.56 926.68,-1066.28 937.03,-1068.51 936.16,-1061.56"/>
</g>
<!-- run_parameter_import -->
<g id="node31" class="node">
<title>run_parameter_import</title>
<ellipse fill="none" stroke="black" cx="1558.85" cy="-1022.34" rx="115.88" ry="18"/>
<text text-anchor="middle" x="1558.85" y="-1018.64" font-family="Times,serif" font-size="14.00">run_parameter_import</text>
</g>
<!-- run_parameter_import&#45;&gt;run_parameter -->
<g id="edge43" class="edge">
<title>run_parameter_import&#45;&gt;run_parameter</title>
<path fill="none" stroke="black" d="M1443.49,-1024.23C1404.7,-1024.86 1362.02,-1025.56 1325.48,-1026.16"/>
<polygon fill="black" stroke="black" points="1325.28,-1022.66 1315.34,-1026.32 1325.4,-1029.66 1325.28,-1022.66"/>
</g>
<!-- run_parameter_txt -->
<g id="node32" class="node">
<title>run_parameter_txt</title>
<ellipse fill="none" stroke="black" cx="744.68" cy="-972.66" rx="97.48" ry="18"/>
<text text-anchor="middle" x="744.68" y="-968.96" font-family="Times,serif" font-size="14.00">run_parameter_txt</text>
</g>
<!-- run_parameter_txt&#45;&gt;lang_lst -->
<g id="edge46" class="edge">
<title>run_parameter_txt&#45;&gt;lang_lst</title>
<path fill="none" stroke="black" d="M660.15,-981.78C620.88,-986.01 575.31,-990.93 540.55,-994.68"/>
<polygon fill="black" stroke="black" points="540.16,-991.2 530.59,-995.75 540.91,-998.16 540.16,-991.2"/>
</g>
<!-- run_parameter_txt&#45;&gt;parameter_dic -->
<g id="edge45" class="edge">
<title>run_parameter_txt&#45;&gt;parameter_dic</title>
<path fill="none" stroke="black" d="M809.14,-986.2C848.35,-994.43 898.35,-1004.93 938.08,-1013.28"/>
<polygon fill="black" stroke="black" points="937.44,-1016.72 947.95,-1015.35 938.88,-1009.87 937.44,-1016.72"/>
</g>
<!-- run_parameter_txt&#45;&gt;run_lst -->
<g id="edge44" class="edge">
<title>run_parameter_txt&#45;&gt;run_lst</title>
<path fill="none" stroke="black" d="M769.49,-990.1C793.29,-1006.82 829.27,-1032.11 854.8,-1050.05"/>
<polygon fill="black" stroke="black" points="852.83,-1052.94 863.02,-1055.83 856.85,-1047.21 852.83,-1052.94"/>
</g>
<!-- run_progress -->
<g id="node33" class="node">
<title>run_progress</title>
<ellipse fill="none" stroke="black" cx="1153.81" cy="-1169.48" rx="72.29" ry="18"/>
<text text-anchor="middle" x="1153.81" y="-1165.78" font-family="Times,serif" font-size="14.00">run_progress</text>
</g>
<!-- run_progress&#45;&gt;run_lst -->
<g id="edge47" class="edge">
<title>run_progress&#45;&gt;run_lst</title>
<path fill="none" stroke="black" d="M1113.02,-1154.59C1062.95,-1136.32 978.45,-1105.47 927.66,-1086.93"/>
<polygon fill="black" stroke="black" points="928.57,-1083.54 917.97,-1083.4 926.17,-1090.11 928.57,-1083.54"/>
</g>
<!-- run_table -->
<g id="node34" class="node">
<title>run_table</title>
<ellipse fill="none" stroke="black" cx="657.47" cy="-1270.87" rx="54.69" ry="18"/>
<text text-anchor="middle" x="657.47" y="-1267.17" font-family="Times,serif" font-size="14.00">run_table</text>
</g>
<!-- run_table&#45;&gt;run_lst -->
<g id="edge48" class="edge">
<title>run_table&#45;&gt;run_lst</title>
<path fill="none" stroke="black" d="M676.9,-1253.87C717.7,-1218.15 812.38,-1135.27 858.73,-1094.69"/>
<polygon fill="black" stroke="black" points="861.32,-1097.08 866.54,-1087.86 856.71,-1091.81 861.32,-1097.08"/>
</g>
<!-- run_table&#45;&gt;table_dic -->
<g id="edge49" class="edge">
<title>run_table&#45;&gt;table_dic</title>
<path fill="none" stroke="black" d="M604.11,-1274.98C540.38,-1279.89 434.03,-1288.08 367.11,-1293.24"/>
<polygon fill="black" stroke="black" points="366.82,-1289.75 357.12,-1294.01 367.36,-1296.73 366.82,-1289.75"/>
</g>
<!-- run_txt -->
<g id="node35" class="node">
<title>run_txt</title>
<ellipse fill="none" stroke="black" cx="672.57" cy="-1020.69" rx="44.39" ry="18"/>
<text text-anchor="middle" x="672.57" y="-1016.99" font-family="Times,serif" font-size="14.00">run_txt</text>
</g>
<!-- run_txt&#45;&gt;lang_lst -->
<g id="edge51" class="edge">
<title>run_txt&#45;&gt;lang_lst</title>
<path fill="none" stroke="black" d="M629.64,-1016.08C603.31,-1013.26 569.32,-1009.61 540.95,-1006.57"/>
<polygon fill="black" stroke="black" points="541.1,-1003.07 530.78,-1005.48 540.35,-1010.03 541.1,-1003.07"/>
</g>
<!-- run_txt&#45;&gt;run_lst -->
<g id="edge50" class="edge">
<title>run_txt&#45;&gt;run_lst</title>
<path fill="none" stroke="black" d="M711.09,-1029.88C746.69,-1038.38 799.71,-1051.04 837.9,-1060.15"/>
<polygon fill="black" stroke="black" points="837.21,-1063.59 847.75,-1062.51 838.84,-1056.78 837.21,-1063.59"/>
</g>
<!-- table_acc -->
<g id="node36" class="node">
<title>table_acc</title>
<ellipse fill="none" stroke="black" cx="53.47" cy="-1265.2" rx="53.89" ry="18"/>
<text text-anchor="middle" x="53.47" y="-1261.5" font-family="Times,serif" font-size="14.00">table_acc</text>
</g>
<!-- table_acc&#45;&gt;table_dic -->
<g id="edge52" class="edge">
<title>table_acc&#45;&gt;table_dic</title>
<path fill="none" stroke="black" d="M103.99,-1271.74C145.32,-1277.1 203.82,-1284.68 247.26,-1290.31"/>
<polygon fill="black" stroke="black" points="247.03,-1293.81 257.4,-1291.62 247.93,-1286.87 247.03,-1293.81"/>
</g>
<!-- table_acc_txt -->
<g id="node37" class="node">
<title>table_acc_txt</title>
<ellipse fill="none" stroke="black" cx="147.59" cy="-1064.55" rx="71.49" ry="18"/>
<text text-anchor="middle" x="147.59" y="-1060.85" font-family="Times,serif" font-size="14.00">table_acc_txt</text>
</g>
<!-- table_acc_txt&#45;&gt;lang_lst -->
<g id="edge54" class="edge">
<title>table_acc_txt&#45;&gt;lang_lst</title>
<path fill="none" stroke="black" d="M204.9,-1053.71C268.92,-1041.59 371.66,-1022.15 433.44,-1010.46"/>
<polygon fill="black" stroke="black" points="434.19,-1013.88 443.36,-1008.58 432.89,-1007 434.19,-1013.88"/>
</g>
<!-- table_acc_txt&#45;&gt;table_acc -->
<g id="edge53" class="edge">
<title>table_acc_txt&#45;&gt;table_acc</title>
<path fill="none" stroke="black" d="M139.07,-1082.71C122.48,-1118.08 85.76,-1196.36 66.24,-1237.97"/>
<polygon fill="black" stroke="black" points="62.98,-1236.68 61.9,-1247.22 69.31,-1239.66 62.98,-1236.68"/>
</g>
<!-- table_dic_txt -->
<g id="node39" class="node">
<title>table_dic_txt</title>
<ellipse fill="none" stroke="black" cx="225.99" cy="-1111.11" rx="69.59" ry="18"/>
<text text-anchor="middle" x="225.99" y="-1107.41" font-family="Times,serif" font-size="14.00">table_dic_txt</text>
</g>
<!-- table_dic_txt&#45;&gt;lang_lst -->
<g id="edge56" class="edge">
<title>table_dic_txt&#45;&gt;lang_lst</title>
<path fill="none" stroke="black" d="M262.34,-1095.63C310.29,-1075.21 394.46,-1039.37 444.57,-1018.02"/>
<polygon fill="black" stroke="black" points="445.98,-1021.23 453.81,-1014.09 443.24,-1014.79 445.98,-1021.23"/>
</g>
<!-- table_dic_txt&#45;&gt;table_dic -->
<g id="edge55" class="edge">
<title>table_dic_txt&#45;&gt;table_dic</title>
<path fill="none" stroke="black" d="M233.68,-1129.02C247.73,-1161.8 277.68,-1231.63 294.33,-1270.46"/>
<polygon fill="black" stroke="black" points="291.3,-1272.26 298.46,-1280.07 297.73,-1269.5 291.3,-1272.26"/>
</g>
<!-- table_dims -->
<g id="node40" class="node">
<title>table_dims</title>
<ellipse fill="none" stroke="black" cx="506.04" cy="-1421.77" rx="61.19" ry="18"/>
<text text-anchor="middle" x="506.04" y="-1418.07" font-family="Times,serif" font-size="14.00">table_dims</text>
</g>
<!-- table_dims&#45;&gt;table_dic -->
<g id="edge57" class="edge">
<title>table_dims&#45;&gt;table_dic</title>
<path fill="none" stroke="black" d="M479.49,-1405.33C443.7,-1383.16 379.92,-1343.65 340.49,-1319.23"/>
<polygon fill="black" stroke="black" points="341.85,-1315.95 331.51,-1313.66 338.17,-1321.9 341.85,-1315.95"/>
</g>
<!-- table_dims&#45;&gt;type_dic -->
<g id="edge58" class="edge">
<title>table_dims&#45;&gt;type_dic</title>
<path fill="none" stroke="black" d="M547.25,-1408.33C602.46,-1390.32 700.17,-1358.45 758.02,-1339.58"/>
<polygon fill="black" stroke="black" points="759.23,-1342.87 767.65,-1336.44 757.05,-1336.22 759.23,-1342.87"/>
</g>
<!-- table_dims_txt -->
<g id="node41" class="node">
<title>table_dims_txt</title>
<ellipse fill="none" stroke="black" cx="337.33" cy="-1237.53" rx="78.79" ry="18"/>
<text text-anchor="middle" x="337.33" y="-1233.83" font-family="Times,serif" font-size="14.00">table_dims_txt</text>
</g>
<!-- table_dims_txt&#45;&gt;lang_lst -->
<g id="edge60" class="edge">
<title>table_dims_txt&#45;&gt;lang_lst</title>
<path fill="none" stroke="black" d="M348.71,-1219.33C374.74,-1177.7 438.7,-1075.38 469.01,-1026.9"/>
<polygon fill="black" stroke="black" points="472.1,-1028.57 474.43,-1018.23 466.16,-1024.86 472.1,-1028.57"/>
</g>
<!-- table_dims_txt&#45;&gt;table_dims -->
<g id="edge59" class="edge">
<title>table_dims_txt&#45;&gt;table_dims</title>
<path fill="none" stroke="black" d="M353.51,-1255.19C383.62,-1288.07 448.32,-1358.74 482.99,-1396.6"/>
<polygon fill="black" stroke="black" points="480.58,-1399.15 489.91,-1404.16 485.74,-1394.42 480.58,-1399.15"/>
</g>
<!-- table_expr -->
<g id="node42" class="node">
<title>table_expr</title>
<ellipse fill="none" stroke="black" cx="83.47" cy="-1384.78" rx="59.59" ry="18"/>
<text text-anchor="middle" x="83.47" y="-1381.08" font-family="Times,serif" font-size="14.00">table_expr</text>
</g>
<!-- table_expr&#45;&gt;table_dic -->
<g id="edge61" class="edge">
<title>table_expr&#45;&gt;table_dic</title>
<path fill="none" stroke="black" d="M120.24,-1370.44C159.11,-1355.27 220.44,-1331.35 261.93,-1315.17"/>
<polygon fill="black" stroke="black" points="263.45,-1318.33 271.5,-1311.44 260.91,-1311.81 263.45,-1318.33"/>
</g>
<!-- table_expr_txt -->
<g id="node43" class="node">
<title>table_expr_txt</title>
<ellipse fill="none" stroke="black" cx="183.65" cy="-1177.23" rx="77.19" ry="18"/>
<text text-anchor="middle" x="183.65" y="-1173.53" font-family="Times,serif" font-size="14.00">table_expr_txt</text>
</g>
<!-- table_expr_txt&#45;&gt;lang_lst -->
<g id="edge63" class="edge">
<title>table_expr_txt&#45;&gt;lang_lst</title>
<path fill="none" stroke="black" d="M212.31,-1160.46C268.01,-1127.86 390.66,-1056.08 450.81,-1020.89"/>
<polygon fill="black" stroke="black" points="452.69,-1023.84 459.56,-1015.77 449.16,-1017.8 452.69,-1023.84"/>
</g>
<!-- table_expr_txt&#45;&gt;table_expr -->
<g id="edge62" class="edge">
<title>table_expr_txt&#45;&gt;table_expr</title>
<path fill="none" stroke="black" d="M174.93,-1195.29C157.27,-1231.87 117.19,-1314.91 96.45,-1357.89"/>
<polygon fill="black" stroke="black" points="93.29,-1356.38 92.1,-1366.91 99.59,-1359.43 93.29,-1356.38"/>
</g>
<!-- task_lst -->
<g id="node44" class="node">
<title>task_lst</title>
<ellipse fill="none" stroke="black" cx="497.61" cy="-546.61" rx="46.29" ry="18"/>
<text text-anchor="middle" x="497.61" y="-542.91" font-family="Times,serif" font-size="14.00">task_lst</text>
</g>
<!-- task_lst&#45;&gt;model_dic -->
<g id="edge64" class="edge">
<title>task_lst&#45;&gt;model_dic</title>
<path fill="none" stroke="black" d="M505.09,-564.6C526.24,-615.5 586.61,-760.75 611.85,-821.49"/>
<polygon fill="black" stroke="black" points="608.66,-822.93 615.73,-830.82 615.12,-820.24 608.66,-822.93"/>
</g>
<!-- task_run_lst -->
<g id="node45" class="node">
<title>task_run_lst</title>
<ellipse fill="none" stroke="black" cx="402.93" cy="-262.3" rx="66.89" ry="18"/>
<text text-anchor="middle" x="402.93" y="-258.6" font-family="Times,serif" font-size="14.00">task_run_lst</text>
</g>
<!-- task_run_lst&#45;&gt;task_lst -->
<g id="edge65" class="edge">
<title>task_run_lst&#45;&gt;task_lst</title>
<path fill="none" stroke="black" d="M409,-280.52C425.13,-328.96 469.17,-461.2 488.41,-518.98"/>
<polygon fill="black" stroke="black" points="485.12,-520.16 491.6,-528.54 491.76,-517.95 485.12,-520.16"/>
</g>
<!-- task_run_set -->
<g id="node46" class="node">
<title>task_run_set</title>
<ellipse fill="none" stroke="black" cx="317.9" cy="-17.85" rx="69.59" ry="18"/>
<text text-anchor="middle" x="317.9" y="-14.15" font-family="Times,serif" font-size="14.00">task_run_set</text>
</g>
<!-- task_run_set&#45;&gt;task_run_lst -->
<g id="edge66" class="edge">
<title>task_run_set&#45;&gt;task_run_lst</title>
<path fill="none" stroke="black" d="M324.15,-35.83C338.86,-78.12 375.75,-184.15 393.32,-234.68"/>
<polygon fill="black" stroke="black" points="390.08,-236 396.67,-244.3 396.69,-233.7 390.08,-236"/>
</g>
<!-- task_set -->
<g id="node47" class="node">
<title>task_set</title>
<ellipse fill="none" stroke="black" cx="760.04" cy="-541.26" rx="48.99" ry="18"/>
<text text-anchor="middle" x="760.04" y="-537.56" font-family="Times,serif" font-size="14.00">task_set</text>
</g>
<!-- task_set&#45;&gt;task_lst -->
<g id="edge67" class="edge">
<title>task_set&#45;&gt;task_lst</title>
<path fill="none" stroke="black" d="M711.29,-542.26C666.78,-543.16 600.98,-544.5 554.17,-545.46"/>
<polygon fill="black" stroke="black" points="553.82,-541.96 543.9,-545.67 553.96,-548.96 553.82,-541.96"/>
</g>
<!-- workset_lst -->
<g id="node53" class="node">
<title>workset_lst</title>
<ellipse fill="none" stroke="black" cx="883.85" cy="-790.46" rx="63.89" ry="18"/>
<text text-anchor="middle" x="883.85" y="-786.76" font-family="Times,serif" font-size="14.00">workset_lst</text>
</g>
<!-- task_set&#45;&gt;workset_lst -->
<g id="edge68" class="edge">
<title>task_set&#45;&gt;workset_lst</title>
<path fill="none" stroke="black" d="M768.94,-559.18C790.35,-602.27 844.82,-711.9 870.31,-763.2"/>
<polygon fill="black" stroke="black" points="867.28,-764.96 874.86,-772.36 873.54,-761.85 867.28,-764.96"/>
</g>
<!-- task_txt -->
<g id="node48" class="node">
<title>task_txt</title>
<ellipse fill="none" stroke="black" cx="371.21" cy="-732.26" rx="48.19" ry="18"/>
<text text-anchor="middle" x="371.21" y="-728.56" font-family="Times,serif" font-size="14.00">task_txt</text>
</g>
<!-- task_txt&#45;&gt;lang_lst -->
<g id="edge70" class="edge">
<title>task_txt&#45;&gt;lang_lst</title>
<path fill="none" stroke="black" d="M378.88,-750.29C398.47,-796.31 450.44,-918.39 473.79,-973.25"/>
<polygon fill="black" stroke="black" points="470.66,-974.84 477.8,-982.67 477.1,-972.1 470.66,-974.84"/>
</g>
<!-- task_txt&#45;&gt;task_lst -->
<g id="edge69" class="edge">
<title>task_txt&#45;&gt;task_lst</title>
<path fill="none" stroke="black" d="M383.1,-714.8C405.4,-682.04 453.62,-611.22 479.81,-572.76"/>
<polygon fill="black" stroke="black" points="482.93,-574.4 485.66,-564.16 477.14,-570.46 482.93,-574.4"/>
</g>
<!-- type_dic_txt -->
<g id="node50" class="node">
<title>type_dic_txt</title>
<ellipse fill="none" stroke="black" cx="527.82" cy="-1237.57" rx="66.89" ry="18"/>
<text text-anchor="middle" x="527.82" y="-1233.87" font-family="Times,serif" font-size="14.00">type_dic_txt</text>
</g>
<!-- type_dic_txt&#45;&gt;lang_lst -->
<g id="edge72" class="edge">
<title>type_dic_txt&#45;&gt;lang_lst</title>
<path fill="none" stroke="black" d="M524.57,-1219.37C517.22,-1178.28 499.29,-1078.07 490.49,-1028.85"/>
<polygon fill="black" stroke="black" points="493.91,-1028.11 488.71,-1018.88 487.02,-1029.34 493.91,-1028.11"/>
</g>
<!-- type_dic_txt&#45;&gt;type_dic -->
<g id="edge71" class="edge">
<title>type_dic_txt&#45;&gt;type_dic</title>
<path fill="none" stroke="black" d="M571.69,-1251.32C622.4,-1267.22 705.53,-1293.28 757.57,-1309.6"/>
<polygon fill="black" stroke="black" points="756.64,-1312.97 767.23,-1312.62 758.74,-1306.29 756.64,-1312.97"/>
</g>
<!-- type_enum_lst -->
<g id="node51" class="node">
<title>type_enum_lst</title>
<ellipse fill="none" stroke="black" cx="992.07" cy="-1541.26" rx="77.19" ry="18"/>
<text text-anchor="middle" x="992.07" y="-1537.56" font-family="Times,serif" font-size="14.00">type_enum_lst</text>
</g>
<!-- type_enum_lst&#45;&gt;type_dic -->
<g id="edge73" class="edge">
<title>type_enum_lst&#45;&gt;type_dic</title>
<path fill="none" stroke="black" d="M976.73,-1523.51C943.49,-1485.03 864.7,-1393.83 826.37,-1349.47"/>
<polygon fill="black" stroke="black" points="828.89,-1347.03 819.7,-1341.75 823.59,-1351.61 828.89,-1347.03"/>
</g>
<!-- type_enum_txt -->
<g id="node52" class="node">
<title>type_enum_txt</title>
<ellipse fill="none" stroke="black" cx="613.47" cy="-1193.53" rx="79.09" ry="18"/>
<text text-anchor="middle" x="613.47" y="-1189.83" font-family="Times,serif" font-size="14.00">type_enum_txt</text>
</g>
<!-- type_enum_txt&#45;&gt;lang_lst -->
<g id="edge75" class="edge">
<title>type_enum_txt&#45;&gt;lang_lst</title>
<path fill="none" stroke="black" d="M601.65,-1175.73C578.92,-1141.48 529.01,-1066.28 502.61,-1026.49"/>
<polygon fill="black" stroke="black" points="505.49,-1024.5 497.04,-1018.1 499.65,-1028.37 505.49,-1024.5"/>
</g>
<!-- type_enum_txt&#45;&gt;type_dic -->
<g id="edge74" class="edge">
<title>type_enum_txt&#45;&gt;type_dic</title>
<path fill="none" stroke="black" d="M638.46,-1210.64C672.86,-1234.17 734.8,-1276.55 772.58,-1302.4"/>
<polygon fill="black" stroke="black" points="770.95,-1305.53 781.18,-1308.28 774.9,-1299.75 770.95,-1305.53"/>
</g>
<!-- workset_lst&#45;&gt;model_dic -->
<g id="edge76" class="edge">
<title>workset_lst&#45;&gt;model_dic</title>
<path fill="none" stroke="black" d="M833.59,-801.69C789.62,-811.52 725.8,-825.78 679.99,-836.02"/>
<polygon fill="black" stroke="black" points="679.2,-832.61 670.21,-838.21 680.73,-839.44 679.2,-832.61"/>
</g>
<!-- workset_lst&#45;&gt;run_lst -->
<g id="edge77" class="edge">
<title>workset_lst&#45;&gt;run_lst</title>
<path fill="none" stroke="black" d="M883.94,-808.46C884.18,-856.03 884.84,-985.34 885.13,-1043.02"/>
<polygon fill="black" stroke="black" points="881.63,-1043.26 885.18,-1053.24 888.63,-1043.22 881.63,-1043.26"/>
</g>
<!-- workset_parameter -->
<g id="node54" class="node">
<title>workset_parameter</title>
<ellipse fill="none" stroke="black" cx="1089.15" cy="-774.87" rx="100.98" ry="18"/>
<text text-anchor="middle" x="1089.15" y="-771.17" font-family="Times,serif" font-size="14.00">workset_parameter</text>
</g>
<!-- workset_parameter&#45;&gt;parameter_dic -->
<g id="edge79" class="edge">
<title>workset_parameter&#45;&gt;parameter_dic</title>
<path fill="none" stroke="black" d="M1083.13,-793.04C1068.65,-836.72 1031.81,-947.89 1014.59,-999.86"/>
<polygon fill="black" stroke="black" points="1011.24,-998.83 1011.42,-1009.43 1017.88,-1001.03 1011.24,-998.83"/>
</g>
<!-- workset_parameter&#45;&gt;workset_lst -->
<g id="edge78" class="edge">
<title>workset_parameter&#45;&gt;workset_lst</title>
<path fill="none" stroke="black" d="M996.41,-781.91C982.83,-782.94 969.01,-783.99 955.92,-784.99"/>
<polygon fill="black" stroke="black" points="955.31,-781.52 945.6,-785.77 955.84,-788.5 955.31,-781.52"/>
</g>
<!-- workset_parameter_txt -->
<g id="node55" class="node">
<title>workset_parameter_txt</title>
<ellipse fill="none" stroke="black" cx="712.38" cy="-746.42" rx="118.08" ry="18"/>
<text text-anchor="middle" x="712.38" y="-742.72" font-family="Times,serif" font-size="14.00">workset_parameter_txt</text>
</g>
<!-- workset_parameter_txt&#45;&gt;lang_lst -->
<g id="edge81" class="edge">
<title>workset_parameter_txt&#45;&gt;lang_lst</title>
<path fill="none" stroke="black" d="M696.42,-764.29C656.68,-808.81 553.2,-924.72 507.59,-975.81"/>
<polygon fill="black" stroke="black" points="504.83,-973.64 500.78,-983.44 510.05,-978.31 504.83,-973.64"/>
</g>
<!-- workset_parameter_txt&#45;&gt;workset_parameter -->
<g id="edge80" class="edge">
<title>workset_parameter_txt&#45;&gt;workset_parameter</title>
<path fill="none" stroke="black" d="M818.59,-754.44C871.02,-758.4 934.02,-763.16 986.03,-767.08"/>
<polygon fill="black" stroke="black" points="986.05,-770.6 996.28,-767.86 986.57,-763.62 986.05,-770.6"/>
</g>
<!-- workset_txt -->
<g id="node56" class="node">
<title>workset_txt</title>
<ellipse fill="none" stroke="black" cx="567.89" cy="-790.47" rx="65.79" ry="18"/>
<text text-anchor="middle" x="567.89" y="-786.77" font-family="Times,serif" font-size="14.00">workset_txt</text>
</g>
<!-- workset_txt&#45;&gt;lang_lst -->
<g id="edge83" class="edge">
<title>workset_txt&#45;&gt;lang_lst</title>
<path fill="none" stroke="black" d="M560.86,-808.39C546.41,-845.22 513.28,-929.65 496.15,-973.32"/>
<polygon fill="black" stroke="black" points="492.85,-972.16 492.45,-982.75 499.36,-974.72 492.85,-972.16"/>
</g>
<!-- workset_txt&#45;&gt;workset_lst -->
<g id="edge82" class="edge">
<title>workset_txt&#45;&gt;workset_lst</title>
<path fill="none" stroke="black" d="M633.74,-790.47C685.14,-790.47 756.53,-790.46 809.89,-790.46"/>
<polygon fill="black" stroke="black" points="809.97,-793.96 819.97,-790.46 809.97,-786.96 809.97,-793.96"/>
</g>
</g>
</svg>
